<svg width="25" height="25" viewBox="0 0 25 25" fill="none" xmlns="http://www.w3.org/2000/svg">
<path d="M17.9597 18.7062C16.2502 20.0092 14.1688 20.731 12.0197 20.7662C5.01965 20.7662 1.01965 12.7662 1.01965 12.7662C2.26354 10.4481 3.98879 8.42279 6.07965 6.82618M9.91965 5.00618C10.608 4.84506 11.3127 4.76452 12.0197 4.76618C19.0197 4.76618 23.0197 12.7662 23.0197 12.7662C22.4126 13.9018 21.6887 14.9709 20.8597 15.9562M14.1397 14.8862C13.865 15.1809 13.5338 15.4173 13.1658 15.5813C12.7978 15.7453 12.4006 15.8334 11.9977 15.8406C11.5949 15.8477 11.1948 15.7736 10.8213 15.6227C10.4477 15.4718 10.1084 15.2472 9.8235 14.9623C9.53862 14.6775 9.31405 14.3381 9.16316 13.9646C9.01228 13.591 8.93818 13.1909 8.94529 12.7881C8.95239 12.3853 9.04056 11.988 9.20453 11.62C9.3685 11.252 9.60491 10.9208 9.89965 10.6462" stroke="black" stroke-width="2" stroke-linecap="round" stroke-linejoin="round"/>
<path d="M1.01965 1.76618L23.0197 23.7662" stroke="black" stroke-width="2" stroke-linecap="round" stroke-linejoin="round"/>
</svg>
