<svg width="84" height="84" viewBox="0 0 84 84" fill="none" xmlns="http://www.w3.org/2000/svg">
<circle cx="42" cy="42" r="42" fill="#ECF0ED"/>
<path d="M64 66.75V61.25C64 58.3326 62.8411 55.5347 60.7782 53.4718C58.7153 51.4089 55.9174 50.25 53 50.25H31C28.0826 50.25 25.2847 51.4089 23.2218 53.4718C21.1589 55.5347 20 58.3326 20 61.25V66.75" stroke="#3CA534" stroke-width="5" stroke-linecap="round" stroke-linejoin="round"/>
<path d="M42 39.25C48.0751 39.25 53 34.3251 53 28.25C53 22.1749 48.0751 17.25 42 17.25C35.9249 17.25 31 22.1749 31 28.25C31 34.3251 35.9249 39.25 42 39.25Z" stroke="#3CA534" stroke-width="5" stroke-linecap="round" stroke-linejoin="round"/>
</svg>
